<mxfile host="app.diagrams.net" modified="2023-07-29T07:04:51.732Z" agent="Mozilla/5.0 (Windows NT 10.0; Win64; x64) AppleWebKit/537.36 (KHTML, like Gecko) Chrome/114.0.0.0 Safari/537.36" etag="sk3JwIUkilAAPQz2CjhU" version="21.3.2" type="github" pages="3">
  <diagram name="SNO MD Process" id="74e2e168-ea6b-b213-b513-2b3c1d86103e">
    <mxGraphModel dx="1015" dy="549" grid="0" gridSize="10" guides="1" tooltips="1" connect="1" arrows="1" fold="1" page="1" pageScale="1" pageWidth="1100" pageHeight="850" background="none" math="0" shadow="0">
      <root>
        <mxCell id="0" />
        <mxCell id="1" parent="0" />
        <mxCell id="cEjQVzNBcB7Bb6Qwv_np-9" value="RM" style="swimlane;horizontal=0;whiteSpace=wrap;html=1;" vertex="1" parent="1">
          <mxGeometry x="130" y="154" width="682" height="178" as="geometry" />
        </mxCell>
        <mxCell id="cEjQVzNBcB7Bb6Qwv_np-2" value="code released in Enovia &amp;amp; activated in plant" style="rounded=0;whiteSpace=wrap;html=1;" vertex="1" parent="cEjQVzNBcB7Bb6Qwv_np-9">
          <mxGeometry x="72" y="26" width="120" height="60" as="geometry" />
        </mxCell>
        <mxCell id="cEjQVzNBcB7Bb6Qwv_np-5" value="" style="edgeStyle=orthogonalEdgeStyle;rounded=0;orthogonalLoop=1;jettySize=auto;html=1;" edge="1" parent="cEjQVzNBcB7Bb6Qwv_np-9" source="cEjQVzNBcB7Bb6Qwv_np-7">
          <mxGeometry relative="1" as="geometry">
            <mxPoint x="332" y="147" as="targetPoint" />
          </mxGeometry>
        </mxCell>
        <mxCell id="cEjQVzNBcB7Bb6Qwv_np-6" value="N" style="edgeLabel;html=1;align=center;verticalAlign=middle;resizable=0;points=[];" vertex="1" connectable="0" parent="cEjQVzNBcB7Bb6Qwv_np-5">
          <mxGeometry x="-0.2261" y="-1" relative="1" as="geometry">
            <mxPoint as="offset" />
          </mxGeometry>
        </mxCell>
        <mxCell id="cEjQVzNBcB7Bb6Qwv_np-7" value="perfume?" style="rhombus;whiteSpace=wrap;html=1;rounded=0;" vertex="1" parent="cEjQVzNBcB7Bb6Qwv_np-9">
          <mxGeometry x="292" y="16" width="80" height="80" as="geometry" />
        </mxCell>
        <mxCell id="cEjQVzNBcB7Bb6Qwv_np-1" value="" style="edgeStyle=orthogonalEdgeStyle;rounded=0;orthogonalLoop=1;jettySize=auto;html=1;" edge="1" parent="cEjQVzNBcB7Bb6Qwv_np-9" source="cEjQVzNBcB7Bb6Qwv_np-2" target="cEjQVzNBcB7Bb6Qwv_np-7">
          <mxGeometry relative="1" as="geometry" />
        </mxCell>
        <mxCell id="cEjQVzNBcB7Bb6Qwv_np-8" value="RTP Process" style="whiteSpace=wrap;html=1;rounded=0;" vertex="1" parent="cEjQVzNBcB7Bb6Qwv_np-9">
          <mxGeometry x="453" y="37.5" width="87" height="37" as="geometry" />
        </mxCell>
        <mxCell id="cEjQVzNBcB7Bb6Qwv_np-3" value="" style="edgeStyle=orthogonalEdgeStyle;rounded=0;orthogonalLoop=1;jettySize=auto;html=1;" edge="1" parent="cEjQVzNBcB7Bb6Qwv_np-9" source="cEjQVzNBcB7Bb6Qwv_np-7" target="cEjQVzNBcB7Bb6Qwv_np-8">
          <mxGeometry relative="1" as="geometry" />
        </mxCell>
        <mxCell id="cEjQVzNBcB7Bb6Qwv_np-4" value="Y" style="edgeLabel;html=1;align=center;verticalAlign=middle;resizable=0;points=[];" vertex="1" connectable="0" parent="cEjQVzNBcB7Bb6Qwv_np-3">
          <mxGeometry x="-0.2457" relative="1" as="geometry">
            <mxPoint as="offset" />
          </mxGeometry>
        </mxCell>
      </root>
    </mxGraphModel>
  </diagram>
  <diagram id="elDZ7iPYLxUa04ZlPR6A" name="01-GCAS Release">
    <mxGraphModel dx="1015" dy="549" grid="1" gridSize="10" guides="1" tooltips="1" connect="1" arrows="1" fold="1" page="1" pageScale="1" pageWidth="850" pageHeight="1100" math="0" shadow="0">
      <root>
        <mxCell id="0" />
        <mxCell id="1" parent="0" />
      </root>
    </mxGraphModel>
  </diagram>
  <diagram id="XTKQ8xZEAJQ8G7ldyTE9" name="01-Perfume-RFP">
    <mxGraphModel dx="1050" dy="549" grid="0" gridSize="10" guides="1" tooltips="1" connect="1" arrows="1" fold="1" page="1" pageScale="1" pageWidth="1500" pageHeight="1100" math="0" shadow="0">
      <root>
        <mxCell id="0" />
        <mxCell id="1" parent="0" />
      </root>
    </mxGraphModel>
  </diagram>
</mxfile>
